<svg width="16" height="16" viewBox="0 0 16 16" fill="none" xmlns="http://www.w3.org/2000/svg">
<path fill-rule="evenodd" clip-rule="evenodd" d="M7.88106 0.00879257C7.46634 0.0655 6.87595 0.42691 6.65671 0.758314C6.45873 1.05739 6.32165 1.5991 6.23038 2.44302C6.21181 2.61519 6.15662 2.86113 6.10768 2.98964C6.05883 3.11815 6.03195 3.33899 6.04793 3.48045C6.06392 3.62182 6.04597 3.77774 6.00793 3.82686C5.96997 3.87597 5.90764 4.11709 5.86942 4.36268C5.8312 4.60826 5.78851 4.86947 5.77449 4.94315C5.57704 5.98058 5.38682 8.9984 5.46211 9.89947C5.46621 9.94859 5.48988 10.5112 5.51471 11.1497C5.60365 13.4377 5.66974 13.8347 6.10437 14.6957C6.47784 15.4356 6.84434 15.6156 7.97277 15.6128C8.71185 15.6109 8.86098 15.5841 9.10791 15.4083C9.85555 14.8759 9.9712 14.3645 9.73981 12.6137C9.64703 11.9112 9.56255 11.3284 9.5521 11.3185C9.54165 11.3087 9.45279 11.2868 9.35456 11.2698C9.19024 11.2415 9.17676 11.2855 9.18631 11.8195C9.19194 12.1387 9.23615 12.7735 9.28455 13.2301C9.42949 14.5976 9.20516 15.1351 8.41545 15.3126C7.89329 15.4299 7.09341 15.2732 6.84452 15.0048C6.41551 14.5422 6.18484 13.8742 6.08348 12.8018C6.0299 12.2353 5.94068 11.7455 5.88442 11.7092C5.82709 11.6723 5.822 11.643 5.87281 11.6422C5.92854 11.6414 5.94559 11.444 5.91746 11.1274C5.89228 10.845 5.89692 9.76998 5.92773 8.73853C5.98971 6.66268 6.10893 5.42851 6.41506 3.6929C6.90569 0.911558 6.92543 0.853421 7.47491 0.578993C7.94723 0.343143 8.34106 0.335463 8.54262 0.558275C8.84339 0.890571 8.97252 2.06928 8.91046 3.91616C8.87911 4.84938 8.83053 5.88967 8.80258 6.22795C8.76587 6.67179 8.77963 6.82566 8.85223 6.78083C8.90751 6.74662 8.9527 6.76127 8.9527 6.81324C8.9527 6.86522 8.90983 6.90782 8.8575 6.90782C8.80508 6.90782 8.77498 7.01837 8.79052 7.1534C8.82446 7.44872 9.21248 7.57196 9.23204 7.2936C9.23829 7.20421 9.25642 7.03061 9.2724 6.90782C9.2883 6.78502 9.31991 5.59033 9.34268 4.25292C9.38546 1.73466 9.33867 1.21706 9.01191 0.592299C8.80731 0.200884 8.31882 -0.0511298 7.88106 0.00879257ZM10.249 0.723575C10.2784 1.10427 10.3455 1.69564 10.398 2.03776C10.4543 2.40497 10.5026 4.60067 10.5155 7.39595C10.5412 12.9352 10.611 14.9331 10.785 15.1141C10.8806 15.2135 11.4088 15.2432 13.4115 15.2618C14.9962 15.2765 15.9386 15.2525 15.9732 15.1966C16.096 14.9979 15.8083 14.9335 14.8806 14.952C13.0491 14.9883 12.6577 14.9855 11.9741 14.9305C11.5975 14.9003 11.2523 14.8526 11.2069 14.8245C11.0679 14.7386 10.9727 11.8124 10.9596 7.22038C10.9527 4.81366 10.92 2.72396 10.887 2.57661C10.8539 2.42926 10.7884 1.82977 10.7416 1.24448C10.6579 0.200794 10.5995 0.0362979 10.3108 0.0328151C10.2219 0.0317435 10.2077 0.189542 10.249 0.723575ZM0.602856 0.272951C0.304851 0.330373 0.00577527 0.61275 0.000149172 0.841991C-0.00279783 0.961032 0.0382816 1.5206 0.0913276 2.08545C0.144463 2.65029 0.212155 4.76008 0.241804 6.77386C0.271452 8.78765 0.310388 10.5759 0.328427 10.7478C0.346467 10.9198 0.387457 11.5627 0.419517 12.1767C0.483368 13.3989 0.623038 15.0885 0.698589 15.5524C0.740026 15.8069 0.773336 15.8388 0.942654 15.7869C1.05044 15.7537 1.1485 15.7185 1.16046 15.7085C1.17243 15.6985 1.14403 15.3721 1.09742 14.9829C1.00445 14.2066 0.944887 13.4277 0.869069 11.9981C0.841742 11.4824 0.801466 10.8494 0.779587 10.5916C0.757708 10.3338 0.761458 10.1227 0.787981 10.1227C0.954442 10.1227 2.1687 11.6921 2.55922 12.412C2.87321 12.9908 3.46073 13.7074 3.55307 13.6241C3.59156 13.5894 3.59701 13.6066 3.56513 13.6624C3.53325 13.7183 3.72034 14.1202 3.98101 14.5555C4.32733 15.1339 4.51022 15.355 4.66016 15.3769C4.98103 15.4236 5.09275 15.2462 4.8719 15.0406C4.76947 14.9451 4.55264 14.6334 4.39002 14.3479C4.2274 14.0624 4.05219 13.7799 4.00075 13.7199C3.52896 13.1717 3.12853 12.5905 2.82713 12.0164C2.69058 11.7563 2.32766 11.2539 2.02072 10.9001C1.40917 10.1952 1.41266 10.1679 2.12565 10.0747C2.46063 10.0309 3.19613 9.71166 3.5295 9.46546C4.04138 9.08726 4.24258 8.47294 4.50719 6.48023C4.69821 5.0412 4.4027 2.59233 3.92752 1.67724C3.50619 0.866013 2.5201 0.299385 1.46543 0.262503C1.0892 0.249375 0.701089 0.254108 0.602856 0.272951ZM2.52636 0.792338C3.26534 1.17447 3.69373 1.86844 3.95869 3.11243C4.08755 3.71755 4.08496 6.57864 3.95494 7.20475C3.89743 7.48203 3.87546 7.74976 3.90627 7.7996C3.93708 7.84943 3.92922 7.89015 3.88885 7.89015C3.8484 7.89015 3.7666 8.10108 3.70703 8.35899C3.62434 8.71692 3.51646 8.90178 3.25069 9.14039C2.68523 9.64835 1.4958 9.9944 0.931313 9.81517C0.710824 9.74524 0.698678 9.54788 0.664832 5.48191C0.649651 3.66245 0.595533 2.32451 0.511231 1.68653C0.351557 0.47817 0.351468 0.537378 0.513553 0.599622C0.587228 0.627842 0.647507 0.620787 0.647507 0.583905C0.647507 0.463613 2.23014 0.639183 2.52636 0.792338ZM1.20038 2.02079C1.15082 2.08089 1.12394 2.33103 1.14082 2.57661C1.21887 3.71603 1.28022 4.78097 1.30576 5.44226C1.32103 5.83957 1.36247 6.21125 1.39765 6.26832C1.43293 6.32538 1.41453 6.372 1.35684 6.372C1.24137 6.372 1.26924 8.0951 1.38649 8.21244C1.52393 8.34988 2.53895 8.24388 2.59137 8.08662C2.63343 7.96025 2.23746 7.85532 2.00134 7.93025C1.85631 7.97633 1.81175 7.93319 1.75567 7.6927C1.71798 7.53115 1.70137 7.11768 1.71888 6.77386C1.73629 6.43004 1.75353 5.94977 1.75719 5.70651L1.7638 5.26428L2.12101 5.2307C2.77301 5.16953 2.7881 4.91466 2.14066 4.89885L1.7638 4.88965L1.70307 4.17961C1.66967 3.78917 1.62948 3.25398 1.61377 2.99027L1.58519 2.51098L1.92445 2.49026C2.34177 2.4649 2.50841 2.32782 2.35159 2.13885C2.26684 2.03687 2.19424 2.02767 2.03733 2.09911C1.88311 2.16939 1.76692 2.15787 1.56188 2.05187C1.35005 1.94229 1.27084 1.93551 1.20038 2.02079ZM12.6141 6.25162C12.0741 6.42951 11.7626 6.82021 11.8579 7.20002C11.8861 7.31245 11.8625 7.6042 11.8053 7.84827C11.7482 8.09233 11.6881 9.01537 11.6719 9.89947C11.6483 11.1801 11.6763 11.6935 11.8092 12.4246C11.9711 13.3144 11.9892 13.3558 12.4083 13.7905C12.7751 14.1711 12.8999 14.2442 13.2346 14.2749C13.6995 14.3175 14.0074 14.1641 14.2927 13.7478C14.5024 13.4418 14.5465 13.2919 14.4002 13.3823C14.3511 13.4127 14.3109 13.3949 14.3109 13.3429C14.3109 13.2909 14.3712 13.2483 14.4448 13.2483C14.5727 13.2483 14.5942 13.2115 14.6145 12.9581C14.6194 12.8968 14.6737 12.7933 14.7351 12.7285C14.7965 12.6636 14.8529 12.5028 14.8603 12.3713C14.8678 12.2397 14.881 12.0919 14.8897 12.0427C14.8983 11.9936 14.9374 11.5571 14.9767 11.0727C15.0341 10.3638 15.0241 10.1765 14.925 10.1127C14.8219 10.0462 14.8237 10.019 14.936 9.94412C15.055 9.86473 15.055 9.84508 14.936 9.76685C14.8623 9.71854 14.8422 9.67773 14.8914 9.67621C14.9405 9.67469 14.9204 9.63451 14.8467 9.58691C14.7353 9.51484 14.7428 9.49894 14.8914 9.49189C14.9896 9.48734 15.0195 9.46313 14.9578 9.43831C14.8961 9.41339 14.8683 9.35633 14.8961 9.31141C14.9239 9.26649 14.8939 9.22907 14.8296 9.22836C14.7447 9.22737 14.7494 9.20326 14.8467 9.14039C14.9657 9.06341 14.9657 9.0535 14.8467 9.05109C14.7277 9.04868 14.7277 9.03859 14.8467 8.96045C14.9332 8.90365 14.9481 8.84873 14.8888 8.80551C14.8382 8.76871 14.8026 8.6486 14.8096 8.53876C14.8165 8.42883 14.7713 8.24075 14.7091 8.12082C14.6468 8.00089 14.614 7.8847 14.636 7.86264C14.7022 7.79647 14.4747 6.99712 14.3896 6.99712C14.3463 6.99712 14.3109 6.95738 14.3109 6.9088C14.3109 6.76806 14.0195 6.45835 13.7572 6.32029C13.525 6.19812 12.8919 6.16008 12.6141 6.25162ZM13.6485 6.60829C13.8625 6.7485 14.1073 7.19385 14.1812 7.57759C14.3262 8.33041 14.5299 9.05109 14.5974 9.05109C14.6421 9.05109 14.655 9.0894 14.626 9.1362C14.5971 9.18308 14.5566 9.75569 14.5362 10.4088C14.4806 12.1847 14.427 12.5013 14.0555 13.2483C13.7449 13.8727 13.7014 13.9198 13.4138 13.9429C12.4622 14.0194 11.9805 12.4224 12.1125 9.62897C12.1462 8.91758 12.1992 8.26897 12.2305 8.18753C12.2686 8.08805 12.253 8.06063 12.1828 8.10403C12.1253 8.13957 12.0783 8.12841 12.0783 8.07929C12.0783 8.03018 12.1201 7.96418 12.1713 7.93257C12.2224 7.90095 12.2398 7.79817 12.2099 7.70404C12.1795 7.6084 12.1976 7.53294 12.2509 7.53294C12.3039 7.53294 12.3462 7.35987 12.3462 7.14322C12.3462 6.77681 12.3663 6.74519 12.6811 6.61606C13.1268 6.43317 13.3781 6.4312 13.6485 6.60829Z" fill="black"/>
</svg>
